<svg xmlns="http://www.w3.org/2000/svg" id="svg" version="1.1" viewBox="0 0 1057 1057"><path d="M527.176 4.750 C 526.533 7.362,524.843 13.775,523.420 19.000 C 521.996 24.225,519.558 33.450,518.002 39.500 C 516.445 45.550,513.133 58.150,510.640 67.500 C 508.147 76.850,503.178 96.042,499.596 110.149 C 496.015 124.256,491.316 142.256,489.154 150.149 C 481.536 177.963,480.142 183.476,480.607 183.941 C 481.094 184.427,488.395 182.054,507.881 175.076 C 514.140 172.834,519.936 171.000,520.761 171.000 C 521.943 171.000,522.145 171.899,521.717 175.250 C 521.108 180.020,516.785 202.072,514.514 212.000 C 513.696 215.575,511.228 227.050,509.030 237.500 C 506.832 247.950,504.143 260.550,503.054 265.500 C 498.390 286.706,490.749 322.880,489.959 327.494 C 489.488 330.247,487.268 341.275,485.027 352.000 C 482.785 362.725,479.880 376.675,478.569 383.000 C 473.451 407.710,461.962 461.556,461.592 462.568 C 461.164 463.741,458.378 464.395,434.000 469.046 C 424.925 470.777,398.375 476.036,375.000 480.733 C 351.625 485.429,329.350 489.858,325.500 490.573 C 319.123 491.758,298.083 496.127,268.000 502.511 C 230.254 510.522,171.743 521.959,170.966 521.479 C 170.062 520.921,171.491 516.747,180.494 493.641 C 183.036 487.118,184.957 481.623,184.763 481.430 C 184.570 481.236,171.156 484.454,154.956 488.581 C 128.883 495.223,85.953 506.000,21.000 522.210 C 0.000 527.450,-0.679 527.654,0.148 528.482 C 0.780 529.113,42.078 539.715,76.000 547.954 C 82.875 549.624,97.050 553.200,107.500 555.900 C 117.950 558.601,136.400 563.370,148.500 566.498 C 160.600 569.626,173.650 572.997,177.500 573.990 C 181.350 574.982,184.593 575.710,184.706 575.608 C 185.053 575.294,182.373 568.203,175.595 551.500 C 172.024 542.700,169.453 535.148,169.883 534.718 C 170.313 534.287,177.378 535.307,185.582 536.983 C 193.787 538.659,209.500 541.856,220.500 544.088 C 231.500 546.320,246.800 549.468,254.500 551.083 C 262.200 552.698,270.975 554.448,274.000 554.970 C 277.025 555.493,288.275 557.761,299.000 560.010 C 309.725 562.259,321.875 564.749,326.000 565.543 C 333.908 567.065,350.155 570.290,368.500 573.980 C 374.550 575.197,388.500 577.975,399.500 580.154 C 432.825 586.756,460.436 593.046,461.619 594.308 C 462.837 595.605,464.757 603.838,470.991 634.500 C 473.227 645.500,475.487 656.300,476.011 658.500 C 476.536 660.700,478.541 670.375,480.467 680.000 C 483.637 695.844,489.512 724.427,493.622 744.000 C 494.489 748.125,495.542 753.300,495.962 755.500 C 496.383 757.700,498.611 768.500,500.914 779.500 C 517.610 859.261,522.376 883.583,521.565 884.894 C 521.097 885.651,514.257 883.464,491.817 875.381 C 485.941 873.264,480.911 871.755,480.639 872.028 C 480.178 872.489,481.614 878.494,486.968 898.500 C 492.837 920.428,502.674 958.372,505.115 968.500 C 506.176 972.900,508.817 983.025,510.984 991.000 C 513.151 998.975,517.465 1015.400,520.570 1027.500 C 528.195 1057.211,528.134 1057.000,529.041 1057.000 C 529.479 1057.000,530.270 1055.088,530.798 1052.750 C 531.326 1050.412,533.639 1041.300,535.938 1032.500 C 538.236 1023.700,541.861 1009.750,543.991 1001.500 C 546.122 993.250,548.590 983.800,549.476 980.500 C 550.362 977.200,553.514 965.050,556.480 953.500 C 563.194 927.360,567.518 910.711,570.115 901.000 C 575.032 882.610,577.633 871.967,577.294 871.627 C 577.091 871.425,575.255 871.848,573.213 872.566 C 565.889 875.145,539.462 884.774,537.624 885.535 C 534.320 886.901,535.395 879.411,544.515 837.500 C 545.353 833.650,547.131 825.325,548.467 819.000 C 551.225 805.940,554.933 788.617,558.422 772.500 C 559.732 766.450,562.433 753.850,564.425 744.500 C 566.416 735.150,568.457 725.700,568.959 723.500 C 569.461 721.300,572.185 708.025,575.013 694.000 C 577.840 679.975,581.884 660.175,584.000 650.000 C 586.116 639.825,589.017 625.875,590.448 619.000 C 591.879 612.125,593.826 603.350,594.775 599.500 L 596.500 592.500 606.500 590.231 C 612.000 588.983,625.500 586.123,636.500 583.876 C 647.500 581.628,657.400 579.605,658.500 579.379 C 659.600 579.153,669.050 577.425,679.500 575.539 C 720.344 568.165,831.071 546.119,877.929 536.030 C 883.116 534.914,887.503 534.000,887.679 534.000 C 888.908 534.000,887.033 539.711,880.389 556.211 C 876.203 566.606,872.970 575.304,873.205 575.538 C 873.440 575.773,874.952 575.525,876.566 574.987 C 878.180 574.450,888.725 571.723,900.000 568.929 C 911.275 566.135,924.550 562.796,929.500 561.509 C 934.450 560.222,954.475 555.115,974.000 550.161 C 993.525 545.206,1012.875 540.248,1017.000 539.142 C 1021.125 538.036,1031.672 535.292,1040.438 533.044 C 1055.732 529.122,1057.839 528.432,1056.917 527.644 C 1056.688 527.449,1050.650 525.870,1043.500 524.135 C 1036.350 522.401,1026.225 519.848,1021.000 518.463 C 1010.638 515.715,940.897 497.968,899.567 487.562 C 885.304 483.971,873.474 481.192,873.279 481.388 C 873.083 481.583,875.351 487.764,878.318 495.122 C 885.544 513.040,888.236 520.809,887.584 521.863 C 887.287 522.345,881.071 521.462,873.772 519.901 C 866.472 518.339,856.900 516.335,852.500 515.447 C 836.128 512.141,816.140 507.994,804.500 505.488 C 797.900 504.067,786.875 501.778,780.000 500.400 C 773.125 499.022,758.950 496.106,748.500 493.921 C 738.050 491.736,727.250 489.512,724.500 488.979 C 702.120 484.644,642.527 472.530,609.000 465.501 C 602.125 464.060,596.167 462.552,595.761 462.151 C 595.354 461.750,594.125 457.164,593.028 451.961 C 591.932 446.757,590.344 439.350,589.498 435.500 C 586.760 423.025,579.986 390.814,577.513 378.500 C 576.187 371.900,573.718 359.975,572.028 352.000 C 570.337 344.025,567.629 330.975,566.010 323.000 C 564.390 315.025,562.144 304.225,561.018 299.000 C 559.892 293.775,557.205 280.950,555.048 270.500 C 552.891 260.050,550.382 248.125,549.473 244.000 C 542.490 212.305,536.348 181.969,535.552 175.250 C 535.033 170.865,535.192 170.000,536.515 170.000 C 537.386 170.000,546.836 173.315,557.515 177.368 C 568.194 181.420,577.110 184.557,577.328 184.338 C 577.547 184.120,576.647 180.017,575.329 175.221 C 572.446 164.726,568.736 150.612,562.523 126.500 C 559.971 116.600,556.519 103.325,554.850 97.000 C 553.181 90.675,549.869 77.850,547.490 68.500 C 541.258 44.005,532.073 8.124,530.916 3.750 C 530.370 1.688,529.568 0.000,529.133 0.000 C 528.699 0.000,527.818 2.138,527.176 4.750 M187.564 187.250 C 187.948 188.488,189.042 190.625,189.995 192.000 C 191.650 194.387,204.550 216.514,209.817 226.000 C 211.191 228.475,213.979 233.200,216.013 236.500 C 223.141 248.064,246.789 288.783,264.064 319.237 C 273.654 336.143,281.983 349.980,282.573 349.987 C 283.163 349.994,286.269 345.387,289.474 339.750 C 298.114 324.557,301.820 319.000,303.313 319.000 C 304.049 319.000,320.498 334.722,339.867 353.939 C 373.245 387.053,395.095 408.000,396.260 408.000 C 396.550 408.000,399.589 405.259,403.013 401.908 C 408.960 396.089,409.179 395.703,407.898 393.310 C 407.161 391.932,386.857 371.295,362.779 347.450 C 338.700 323.606,319.000 303.663,319.000 303.133 C 319.000 301.782,326.654 296.400,339.239 288.900 C 345.146 285.380,349.983 282.275,349.988 282.000 C 349.994 281.725,347.636 280.195,344.749 278.600 C 341.862 277.005,330.275 270.049,319.000 263.143 C 307.725 256.237,293.775 247.819,288.000 244.436 C 282.225 241.054,268.950 233.057,258.500 226.666 C 248.050 220.275,238.375 214.438,237.000 213.696 C 235.625 212.953,223.985 206.193,211.134 198.673 C 198.283 191.153,187.565 185.000,187.317 185.000 C 187.068 185.000,187.180 186.012,187.564 187.250 M861.483 190.270 C 856.542 193.224,845.525 199.706,837.000 204.676 C 828.475 209.645,815.010 217.652,807.078 222.469 C 799.146 227.286,791.159 232.068,789.329 233.096 C 787.498 234.124,773.513 242.436,758.251 251.567 C 742.988 260.697,725.444 271.168,719.265 274.834 C 713.086 278.500,708.032 281.725,708.034 282.000 C 708.036 282.275,711.067 284.259,714.769 286.410 C 726.001 292.934,738.117 301.142,738.680 302.608 C 739.014 303.480,728.541 314.407,710.355 332.160 C 673.948 367.702,649.060 393.121,649.026 394.799 C 649.012 395.514,651.722 398.812,655.049 402.129 L 661.099 408.160 665.799 404.350 C 668.385 402.254,688.868 382.306,711.318 360.020 C 733.768 337.734,752.893 319.374,753.818 319.220 C 755.479 318.944,758.284 322.997,769.964 342.551 C 772.419 346.661,774.894 349.869,775.464 349.680 C 776.397 349.370,777.785 347.118,785.435 333.500 C 790.527 324.435,804.176 301.047,817.593 278.396 C 825.445 265.139,832.858 252.539,834.065 250.396 C 835.273 248.253,839.302 241.100,843.019 234.500 C 846.737 227.900,854.569 214.448,860.424 204.606 C 866.280 194.764,870.935 186.304,870.769 185.806 C 870.602 185.307,866.424 187.316,861.483 190.270 M527.756 440.533 L 527.500 525.225 497.277 495.362 L 467.054 465.500 470.541 450.500 C 473.727 436.797,478.100 416.200,484.556 384.500 C 485.900 377.900,488.129 367.100,489.509 360.500 C 490.889 353.900,493.127 343.100,494.481 336.500 C 495.834 329.900,498.781 315.950,501.028 305.500 C 503.274 295.050,505.757 283.229,506.543 279.230 C 507.330 275.232,508.852 268.257,509.925 263.730 C 510.998 259.204,512.386 253.025,513.009 250.000 C 518.150 225.052,525.612 192.111,526.754 189.323 C 527.613 187.225,528.129 316.753,527.756 440.533 M464.500 340.387 C 450.862 344.864,436.372 351.045,426.500 356.598 C 415.906 362.558,404.000 370.615,404.000 371.826 C 404.000 372.224,407.293 375.822,411.319 379.820 L 418.638 387.090 424.569 383.148 C 436.855 374.984,461.881 363.028,466.776 362.985 C 470.326 362.953,471.291 361.170,472.532 352.353 C 473.217 347.484,474.101 342.262,474.497 340.750 C 475.406 337.279,474.113 337.232,464.500 340.387 M583.391 342.642 C 584.743 352.746,586.442 360.526,587.452 361.250 C 588.029 361.663,590.300 362.495,592.500 363.099 C 599.854 365.120,617.389 373.542,628.121 380.209 L 638.741 386.807 645.871 379.630 C 649.792 375.683,652.999 372.014,652.999 371.476 C 652.997 370.050,637.500 359.390,628.280 354.472 C 615.921 347.881,597.071 340.730,586.120 338.479 L 582.741 337.784 583.391 342.642 M364.718 412.750 C 352.487 431.089,341.237 455.842,338.605 470.207 L 337.925 473.915 342.713 473.386 C 345.346 473.095,350.409 472.552,353.964 472.179 L 360.428 471.500 363.728 462.500 C 368.283 450.076,375.927 434.927,382.380 425.538 C 386.613 419.379,387.573 417.307,386.764 416.076 C 385.663 414.402,372.536 403.000,371.709 403.000 C 371.441 403.000,368.295 407.387,364.718 412.750 M677.022 409.917 L 669.544 416.766 675.318 425.443 C 682.368 436.036,690.949 453.066,693.991 462.500 C 695.232 466.350,696.529 469.812,696.874 470.193 C 697.218 470.574,702.566 471.724,708.759 472.748 L 720.017 474.609 719.378 471.055 C 718.205 464.530,712.188 447.274,708.144 438.838 C 701.463 424.901,687.329 402.914,685.128 403.034 C 684.783 403.053,681.135 406.151,677.022 409.917 M600.500 469.964 C 603.881 470.706,646.995 479.522,742.500 499.002 C 768.714 504.349,812.060 513.363,826.500 516.471 C 833.100 517.892,845.589 520.480,854.254 522.223 C 862.919 523.966,869.669 525.718,869.254 526.116 C 868.150 527.177,802.029 527.533,658.667 527.250 C 588.908 527.112,531.983 526.616,532.167 526.147 C 532.350 525.677,539.700 518.385,548.500 509.941 C 557.300 501.498,570.468 488.832,577.762 481.795 C 591.957 468.100,591.969 468.093,600.500 469.964 M526.000 529.799 C 526.000 530.238,518.688 537.521,509.750 545.983 C 500.813 554.446,487.759 566.903,480.743 573.667 C 473.727 580.431,466.977 586.206,465.743 586.500 C 464.509 586.795,454.725 585.207,444.000 582.971 C 413.755 576.668,383.538 570.582,360.000 566.053 C 348.175 563.778,334.450 561.043,329.500 559.974 C 321.270 558.198,299.420 553.715,268.500 547.461 C 261.900 546.125,242.100 542.075,224.500 538.460 C 206.900 534.845,191.003 531.623,189.173 531.300 C 186.862 530.893,186.251 530.456,187.173 529.872 C 188.864 528.800,526.000 528.727,526.000 529.799 M577.159 576.193 C 585.815 584.750,590.000 589.598,590.000 591.070 C 590.000 593.025,587.584 604.682,584.937 615.500 C 584.399 617.700,583.562 621.525,583.078 624.000 C 577.350 653.286,568.382 696.649,561.983 726.000 C 560.843 731.225,559.499 737.525,558.995 740.000 C 558.491 742.475,556.972 749.675,555.620 756.000 C 554.269 762.325,551.751 774.250,550.026 782.500 C 547.171 796.157,544.577 807.805,542.011 818.500 C 541.483 820.700,539.670 829.250,537.983 837.500 C 533.046 861.637,530.978 870.311,530.318 869.651 C 529.613 868.947,528.724 533.161,529.422 531.342 C 529.952 529.963,533.579 533.067,547.203 546.555 C 556.616 555.875,570.096 569.212,577.159 576.193 M338.428 585.600 C 340.936 599.435,354.668 629.654,365.133 644.366 C 368.511 649.115,371.596 653.000,371.990 653.000 C 372.384 653.000,376.155 649.737,380.371 645.750 L 388.037 638.500 382.421 630.000 C 375.799 619.977,367.035 602.264,363.984 592.736 C 362.793 589.016,361.071 585.588,360.159 585.118 C 359.247 584.648,355.575 583.955,352.000 583.578 C 348.425 583.202,343.750 582.625,341.611 582.297 L 337.721 581.700 338.428 585.600 M706.110 583.575 C 701.496 584.293,697.418 585.244,697.048 585.690 C 696.678 586.135,694.881 590.550,693.053 595.500 C 688.623 607.502,682.397 619.785,675.589 629.957 C 672.515 634.549,670.000 638.420,670.000 638.559 C 670.000 639.105,684.207 652.521,685.137 652.854 C 686.315 653.276,687.357 651.996,694.380 641.500 C 706.079 624.013,714.618 604.623,718.931 585.750 C 719.758 582.128,719.697 582.005,717.144 582.135 C 715.690 582.209,710.725 582.857,706.110 583.575 M384.500 658.724 C 378.450 664.599,358.092 684.648,339.260 703.278 C 316.224 726.066,304.452 737.041,303.286 736.817 C 301.573 736.487,294.486 725.865,287.232 712.757 C 285.179 709.048,283.050 706.031,282.500 706.051 C 281.950 706.072,277.477 713.157,272.560 721.795 C 262.307 739.804,226.070 802.858,217.844 817.000 C 214.805 822.225,207.921 834.150,202.545 843.500 C 197.170 852.850,191.415 862.655,189.757 865.288 C 188.099 867.921,186.973 870.306,187.255 870.588 C 187.536 870.870,193.557 867.613,200.633 863.351 C 207.710 859.088,222.950 849.901,234.500 842.934 C 276.609 817.534,344.570 777.145,347.250 775.928 C 348.762 775.241,350.000 774.331,350.000 773.907 C 350.000 773.482,346.063 770.764,341.250 767.867 C 325.597 758.444,319.000 753.927,319.000 752.634 C 319.000 751.936,327.865 742.845,338.700 732.432 C 366.158 706.046,409.000 662.835,409.000 661.529 C 409.000 660.483,396.939 647.977,395.973 648.022 C 395.713 648.034,390.550 652.850,384.500 658.724 M655.171 654.327 C 651.777 657.752,649.000 661.172,649.000 661.927 C 649.000 662.682,669.254 683.444,694.009 708.064 L 739.018 752.828 735.010 756.259 C 732.806 758.146,725.827 762.744,719.501 766.478 C 713.176 770.211,708.015 773.543,708.033 773.883 C 708.050 774.222,713.113 777.477,719.283 781.115 C 756.002 802.770,823.432 842.871,853.902 861.176 C 862.923 866.595,870.512 870.821,870.767 870.567 C 871.021 870.312,870.129 868.168,868.785 865.802 C 860.069 850.458,835.572 808.319,831.985 802.500 C 829.612 798.650,824.445 789.875,820.503 783.000 C 814.198 772.003,808.028 761.352,785.167 722.000 C 782.131 716.775,779.023 711.271,778.260 709.770 C 776.146 705.607,775.274 705.598,772.739 709.713 C 763.980 723.936,757.681 733.849,756.060 735.962 L 754.171 738.425 712.793 697.462 C 690.035 674.933,669.148 654.610,666.379 652.300 L 661.343 648.101 655.171 654.327 M630.500 674.575 C 620.342 681.473,608.051 687.762,596.250 692.100 C 591.162 693.970,586.804 696.175,586.565 697.000 C 585.466 700.787,582.930 718.264,583.410 718.743 C 584.599 719.933,611.284 710.117,623.000 704.180 C 636.696 697.240,651.823 687.624,652.719 685.289 C 653.087 684.332,650.665 681.203,645.894 676.474 L 638.500 669.142 630.500 674.575 M410.750 676.798 C 407.038 680.523,404.000 684.128,404.000 684.808 C 404.000 686.814,422.969 698.654,436.397 705.029 C 448.689 710.865,472.751 719.582,473.766 718.568 C 474.240 718.093,472.558 702.534,471.477 697.393 C 471.134 695.763,468.962 694.545,461.890 692.015 C 449.822 687.698,435.075 680.384,426.856 674.638 C 423.207 672.087,419.609 670.005,418.861 670.012 C 418.112 670.018,414.462 673.072,410.750 676.798 " stroke="none" fill="black" fill-rule="evenodd"/></svg>