<svg xmlns="http://www.w3.org/2000/svg" id="svg" version="1.1" viewBox="0 0 416 420"><path d="M315.197 1.559 C 300.235 5.586,285.713 13.670,259.772 32.414 C 226.292 56.605,205.873 69.000,199.503 69.000 C 197.625 69.000,195.305 67.472,191.668 63.841 C 172.362 44.567,151.957 37.194,123.259 39.122 C 105.446 40.319,94.864 45.159,81.992 58.000 C 74.851 65.124,63.000 80.358,63.000 82.413 C 63.000 82.736,135.462 83.000,224.026 83.000 L 385.051 83.000 375.096 63.250 C 369.620 52.388,361.925 38.637,357.996 32.693 C 346.870 15.862,329.918 -0.088,323.320 0.066 C 321.769 0.102,318.114 0.774,315.197 1.559 M0.000 121.000 L 0.000 143.000 208.000 143.000 L 416.000 143.000 416.000 121.000 L 416.000 99.000 208.000 99.000 L 0.000 99.000 0.000 121.000 M19.007 160.250 C 19.011 160.938,29.965 202.900,43.350 253.500 L 67.685 345.500 72.684 345.797 L 77.682 346.093 81.561 339.460 C 89.300 326.227,105.329 314.597,121.460 310.510 C 135.266 307.012,153.487 309.479,167.300 316.716 C 176.007 321.277,187.265 332.048,191.898 340.250 L 195.147 346.000 215.997 346.000 L 236.846 346.000 241.469 339.047 C 250.560 325.372,265.716 314.571,281.000 310.874 C 295.218 307.436,313.186 310.123,327.000 317.754 C 335.010 322.178,345.620 332.579,349.947 340.250 C 352.724 345.172,353.606 346.000,356.076 346.000 C 358.245 346.000,359.093 345.441,359.491 343.750 C 360.291 340.344,398.000 159.798,398.000 159.371 C 398.000 159.167,312.725 159.000,208.500 159.000 C 57.563 159.000,19.001 159.254,19.007 160.250 M386.000 294.362 C 386.000 295.188,380.921 319.640,380.415 321.250 C 379.905 322.872,381.183 323.000,397.933 323.000 L 416.000 323.000 416.000 308.500 L 416.000 294.000 401.000 294.000 C 392.750 294.000,386.000 294.163,386.000 294.362 M121.287 328.413 C 111.348 332.106,103.606 338.264,98.084 346.869 C 77.733 378.583,102.044 421.329,138.950 418.726 C 158.511 417.346,174.408 404.638,180.127 385.807 C 181.807 380.278,182.151 377.006,181.830 369.652 C 181.477 361.598,180.974 359.485,177.852 352.965 C 169.368 335.246,154.763 325.930,135.661 326.052 C 129.697 326.090,125.828 326.726,121.287 328.413 M284.698 328.096 C 277.012 329.904,269.532 334.316,262.947 340.924 C 250.965 352.948,246.449 368.786,250.533 384.465 C 255.341 402.926,269.949 416.001,289.242 419.115 C 305.062 421.667,324.440 413.151,333.242 399.778 C 345.803 380.693,344.208 358.330,329.106 341.807 C 323.664 335.852,314.814 330.569,306.632 328.390 C 300.917 326.869,290.506 326.729,284.698 328.096 " stroke="none" fill="black" fill-rule="evenodd"/></svg>