<svg xmlns="http://www.w3.org/2000/svg" id="svg" version="1.1" viewBox="0 0 384 512"><path d="M171.018 18.253 C 109.525 76.045,57.272 143.936,29.816 201.712 C 13.977 235.043,4.577 265.808,0.918 296.290 C -0.619 309.097,0.262 341.499,2.474 353.500 C 12.506 407.930,45.563 456.439,91.585 484.265 C 122.211 502.783,155.583 512.000,192.000 512.000 C 235.505 512.000,273.825 499.209,308.425 473.140 C 346.351 444.565,372.648 401.529,381.532 353.500 C 384.021 340.044,384.602 307.590,382.620 292.731 C 372.791 219.048,327.337 138.224,247.800 53.003 C 229.957 33.884,194.284 0.000,192.000 0.000 C 191.142 0.000,181.700 8.214,171.018 18.253 M304.303 250.500 C 320.559 291.570,323.454 328.752,312.859 360.373 C 298.238 404.008,259.066 437.526,213.378 445.493 C 203.870 447.151,176.620 447.591,177.167 446.077 C 177.350 445.570,182.447 441.697,188.492 437.471 C 242.219 399.914,277.299 343.163,287.685 277.000 C 289.050 268.304,289.492 259.714,289.495 241.768 L 289.500 218.036 294.131 227.268 C 296.678 232.346,301.255 242.800,304.303 250.500 " stroke="none" fill="black" fill-rule="evenodd"/></svg>