<svg xmlns="http://www.w3.org/2000/svg" id="svg" version="1.1" viewBox="0 0 356 504"><path d="M139.590 11.241 C 131.473 46.100,116.103 86.112,96.084 124.500 C 87.871 140.250,84.101 146.877,58.746 190.141 C 32.388 235.116,23.267 252.950,13.979 277.677 C -4.693 327.388,-3.933 379.313,16.048 419.071 C 27.698 442.251,50.365 465.755,76.146 481.387 C 87.745 488.420,120.000 503.165,120.000 501.435 C 120.000 501.220,115.163 496.186,109.250 490.249 C 91.788 472.713,79.724 453.411,75.070 435.562 C 72.531 425.823,72.295 408.897,74.509 395.248 C 77.230 378.466,80.321 370.337,100.263 327.500 C 107.583 311.777,112.702 298.509,116.486 285.452 C 117.893 280.596,119.194 276.473,119.376 276.291 C 120.147 275.520,133.877 291.069,138.120 297.519 C 147.240 311.380,153.882 327.824,156.089 342.006 C 158.194 355.528,158.078 355.432,162.705 347.474 C 183.989 310.869,197.110 267.850,199.934 225.418 C 200.826 212.017,199.720 180.991,198.265 178.604 C 196.586 175.850,208.655 186.959,220.123 198.726 C 261.853 241.540,286.272 287.077,293.486 335.534 C 295.567 349.512,295.628 374.150,293.616 388.000 C 287.174 432.349,264.970 473.534,234.205 498.197 C 230.743 500.973,228.120 503.453,228.376 503.709 C 228.632 503.965,231.465 503.654,234.671 503.017 C 293.044 491.422,340.112 442.840,352.401 381.500 C 358.046 353.324,355.709 310.088,346.617 274.500 C 332.250 218.262,302.468 168.095,244.211 102.000 C 229.766 85.611,163.007 18.222,149.347 6.241 L 142.211 -0.019 139.590 11.241 " stroke="none" fill="black" fill-rule="evenodd"/></svg>