<svg xmlns="http://www.w3.org/2000/svg" viewBox="-5 -5 910 560" width="910mm" height="560mm">
<style>text{font-family:DejaVu Sans, Arial, sans-serif}.lb{font-size:7.4px;font-weight:600;text-anchor:middle}.lv{font-size:5px;text-anchor:middle}.hd{font-size:11px;font-weight:700;fill:#eef4f7}.hs{font-size:5.6px;fill:#8ea0aa}.ft{font-size:5px;fill:#8ea0aa}</style>
<rect x="-5" y="-5" width="910" height="560" fill="#0b1418"/>
<rect x="0" y="0" width="900" height="550" fill="#16323f"/>
<path d="M 0.00 0.00 L 0.00 549.00 L 900.00 549.00 L 900.00 0.00 L 0.00 0.00 Z M 57.00 540.00 L 57.00 9.00 L 843.00 9.00 L 843.00 540.00 L 57.00 540.00 Z" fill="#13293a" stroke="#0b1418" stroke-width="0.6" stroke-linejoin="round"/>
<path d="M 660.00 318.00 L 660.00 393.00 L 648.00 402.00 L 648.00 417.00 L 582.00 417.00 L 582.00 411.00 L 555.00 411.00 L 555.00 417.00 L 507.00 417.00 L 504.00 426.00 L 459.00 426.00 L 456.00 438.00 L 480.00 438.00 L 480.00 441.00 L 501.00 441.00 L 504.00 435.00 L 525.00 438.00 L 528.00 429.00 L 558.00 426.00 L 558.00 414.00 L 579.00 414.00 L 579.00 420.00 L 651.00 420.00 L 651.00 405.00 L 663.00 396.00 L 663.00 369.00 L 702.00 369.00 L 717.00 387.00 L 681.00 387.00 L 681.00 414.00 L 675.00 420.00 L 651.00 426.00 L 657.00 477.00 L 660.00 477.00 L 660.00 498.00 L 663.00 498.00 L 663.00 519.00 L 666.00 519.00 L 666.00 540.00 L 843.00 540.00 L 843.00 156.00 L 840.00 156.00 L 840.00 174.00 L 762.00 174.00 L 762.00 177.00 L 840.00 177.00 L 840.00 378.00 L 717.00 381.00 L 705.00 366.00 L 678.00 366.00 L 678.00 318.00 L 660.00 318.00 Z" fill="#2f7f9e" stroke="#0b1418" stroke-width="0.6" stroke-linejoin="round"/>
<path d="M 60.00 225.00 L 60.00 354.00 L 66.00 354.00 L 69.00 366.00 L 141.00 363.00 L 129.00 375.00 L 129.00 384.00 L 144.00 384.00 L 144.00 390.00 L 66.00 390.00 L 66.00 393.00 L 57.00 393.00 L 57.00 540.00 L 222.00 540.00 L 240.00 444.00 L 210.00 444.00 L 210.00 441.00 L 195.00 438.00 L 195.00 399.00 L 165.00 399.00 L 153.00 384.00 L 132.00 381.00 L 147.00 363.00 L 165.00 363.00 L 183.00 381.00 L 213.00 381.00 L 213.00 420.00 L 237.00 426.00 L 237.00 441.00 L 342.00 444.00 L 342.00 441.00 L 306.00 438.00 L 309.00 435.00 L 309.00 414.00 L 234.00 414.00 L 234.00 408.00 L 246.00 399.00 L 246.00 390.00 L 234.00 381.00 L 234.00 363.00 L 168.00 363.00 L 168.00 360.00 L 72.00 363.00 L 69.00 360.00 L 69.00 354.00 L 90.00 354.00 L 90.00 351.00 L 108.00 351.00 L 108.00 348.00 L 126.00 348.00 L 126.00 345.00 L 144.00 345.00 L 144.00 342.00 L 216.00 342.00 L 216.00 336.00 L 234.00 339.00 L 231.00 336.00 L 234.00 276.00 L 243.00 267.00 L 243.00 255.00 L 234.00 255.00 L 234.00 258.00 L 180.00 258.00 L 183.00 270.00 L 228.00 270.00 L 231.00 273.00 L 231.00 318.00 L 141.00 321.00 L 141.00 342.00 L 123.00 342.00 L 123.00 345.00 L 105.00 345.00 L 105.00 348.00 L 87.00 348.00 L 87.00 351.00 L 63.00 351.00 L 63.00 234.00 L 69.00 228.00 L 90.00 228.00 L 90.00 225.00 L 60.00 225.00 Z" fill="#4a6fa5" stroke="#0b1418" stroke-width="0.6" stroke-linejoin="round"/>
<path d="M 435.00 288.00 L 435.00 408.00 L 438.00 408.00 L 438.00 291.00 L 453.00 291.00 L 453.00 294.00 L 465.00 294.00 L 465.00 291.00 L 561.00 291.00 L 561.00 303.00 L 564.00 303.00 L 564.00 285.00 L 567.00 288.00 L 657.00 288.00 L 657.00 291.00 L 645.00 291.00 L 645.00 294.00 L 666.00 294.00 L 666.00 291.00 L 660.00 291.00 L 660.00 288.00 L 666.00 288.00 L 666.00 273.00 L 720.00 273.00 L 717.00 288.00 L 681.00 288.00 L 681.00 291.00 L 741.00 291.00 L 741.00 294.00 L 678.00 294.00 L 678.00 306.00 L 681.00 306.00 L 681.00 315.00 L 687.00 321.00 L 696.00 354.00 L 726.00 357.00 L 723.00 363.00 L 705.00 366.00 L 717.00 381.00 L 840.00 378.00 L 840.00 177.00 L 717.00 180.00 L 711.00 174.00 L 702.00 183.00 L 705.00 195.00 L 744.00 198.00 L 744.00 270.00 L 663.00 270.00 L 663.00 285.00 L 486.00 282.00 L 486.00 285.00 L 462.00 285.00 L 462.00 288.00 L 435.00 288.00 Z" fill="#1d6f6f" stroke="#0b1418" stroke-width="0.6" stroke-linejoin="round"/>
<path d="M 108.00 114.00 L 108.00 225.00 L 159.00 225.00 L 165.00 231.00 L 168.00 243.00 L 174.00 246.00 L 177.00 258.00 L 234.00 258.00 L 234.00 255.00 L 243.00 255.00 L 243.00 240.00 L 252.00 240.00 L 252.00 237.00 L 399.00 240.00 L 399.00 270.00 L 432.00 267.00 L 435.00 288.00 L 438.00 288.00 L 438.00 270.00 L 435.00 270.00 L 438.00 264.00 L 402.00 267.00 L 402.00 237.00 L 312.00 234.00 L 309.00 231.00 L 315.00 159.00 L 318.00 159.00 L 318.00 144.00 L 324.00 138.00 L 330.00 138.00 L 330.00 120.00 L 207.00 123.00 L 198.00 114.00 L 201.00 108.00 L 99.00 108.00 L 99.00 114.00 L 108.00 114.00 Z" fill="#5b8bbd" stroke="#0b1418" stroke-width="0.6" stroke-linejoin="round"/>
<path d="M 558.00 180.00 L 588.00 225.00 L 540.00 225.00 L 534.00 243.00 L 444.00 243.00 L 444.00 255.00 L 438.00 255.00 L 438.00 258.00 L 444.00 258.00 L 444.00 264.00 L 435.00 267.00 L 438.00 270.00 L 438.00 288.00 L 462.00 288.00 L 462.00 285.00 L 486.00 285.00 L 486.00 282.00 L 663.00 285.00 L 663.00 270.00 L 744.00 270.00 L 744.00 198.00 L 726.00 198.00 L 726.00 195.00 L 714.00 198.00 L 714.00 195.00 L 702.00 192.00 L 702.00 183.00 L 711.00 174.00 L 717.00 180.00 L 762.00 180.00 L 762.00 174.00 L 759.00 177.00 L 720.00 177.00 L 717.00 174.00 L 717.00 102.00 L 723.00 99.00 L 720.00 81.00 L 717.00 84.00 L 699.00 84.00 L 705.00 105.00 L 597.00 108.00 L 594.00 117.00 L 588.00 117.00 L 582.00 123.00 L 579.00 162.00 L 567.00 165.00 L 558.00 180.00 Z" fill="#265f80" stroke="#0b1418" stroke-width="0.6" stroke-linejoin="round"/>
<path d="M 327.00 243.00 L 327.00 249.00 L 333.00 255.00 L 372.00 252.00 L 372.00 282.00 L 324.00 282.00 L 324.00 297.00 L 312.00 300.00 L 303.00 366.00 L 300.00 366.00 L 300.00 381.00 L 297.00 381.00 L 297.00 405.00 L 312.00 408.00 L 312.00 411.00 L 375.00 411.00 L 375.00 414.00 L 429.00 414.00 L 429.00 411.00 L 435.00 411.00 L 435.00 273.00 L 432.00 273.00 L 432.00 267.00 L 399.00 270.00 L 399.00 240.00 L 336.00 237.00 L 327.00 243.00 Z" fill="#e3eaee" stroke="#0b1418" stroke-width="0.6" stroke-linejoin="round"/>
<path d="M 579.00 420.00 L 579.00 414.00 L 558.00 414.00 L 558.00 426.00 L 552.00 426.00 L 552.00 429.00 L 528.00 429.00 L 525.00 438.00 L 504.00 435.00 L 501.00 441.00 L 495.00 441.00 L 495.00 456.00 L 501.00 456.00 L 501.00 459.00 L 513.00 456.00 L 513.00 465.00 L 516.00 465.00 L 519.00 525.00 L 513.00 525.00 L 513.00 528.00 L 522.00 528.00 L 531.00 540.00 L 666.00 540.00 L 666.00 519.00 L 663.00 519.00 L 663.00 498.00 L 660.00 498.00 L 660.00 477.00 L 657.00 477.00 L 651.00 426.00 L 660.00 426.00 L 660.00 423.00 L 675.00 420.00 L 681.00 414.00 L 681.00 387.00 L 717.00 387.00 L 717.00 384.00 L 702.00 369.00 L 663.00 369.00 L 663.00 396.00 L 651.00 405.00 L 651.00 420.00 L 579.00 420.00 Z" fill="#c98f5a" stroke="#0b1418" stroke-width="0.6" stroke-linejoin="round"/>
<path d="M 309.00 414.00 L 306.00 438.00 L 342.00 441.00 L 342.00 444.00 L 372.00 444.00 L 372.00 450.00 L 378.00 450.00 L 375.00 537.00 L 513.00 537.00 L 513.00 525.00 L 519.00 525.00 L 516.00 465.00 L 513.00 465.00 L 513.00 456.00 L 510.00 459.00 L 495.00 456.00 L 495.00 441.00 L 456.00 438.00 L 456.00 432.00 L 312.00 432.00 L 312.00 420.00 L 321.00 420.00 L 315.00 414.00 L 309.00 414.00 Z" fill="#a96b34" stroke="#0b1418" stroke-width="0.6" stroke-linejoin="round"/>
<path d="M 147.00 363.00 L 132.00 381.00 L 153.00 384.00 L 165.00 399.00 L 195.00 399.00 L 195.00 438.00 L 210.00 441.00 L 210.00 444.00 L 240.00 444.00 L 222.00 540.00 L 531.00 540.00 L 522.00 528.00 L 513.00 528.00 L 513.00 537.00 L 375.00 537.00 L 378.00 450.00 L 372.00 450.00 L 372.00 444.00 L 237.00 441.00 L 237.00 426.00 L 213.00 420.00 L 213.00 381.00 L 183.00 381.00 L 165.00 363.00 L 147.00 363.00 Z" fill="#e0b183" stroke="#0b1418" stroke-width="0.6" stroke-linejoin="round"/>
<path d="M 645.00 291.00 L 657.00 291.00 L 657.00 288.00 L 567.00 288.00 L 564.00 285.00 L 564.00 303.00 L 555.00 303.00 L 555.00 312.00 L 564.00 321.00 L 564.00 333.00 L 570.00 342.00 L 573.00 366.00 L 576.00 366.00 L 579.00 387.00 L 582.00 387.00 L 582.00 408.00 L 552.00 408.00 L 552.00 414.00 L 504.00 414.00 L 504.00 417.00 L 438.00 417.00 L 438.00 408.00 L 429.00 414.00 L 321.00 411.00 L 321.00 414.00 L 315.00 414.00 L 321.00 420.00 L 312.00 420.00 L 312.00 432.00 L 459.00 432.00 L 459.00 426.00 L 504.00 426.00 L 507.00 417.00 L 555.00 417.00 L 555.00 411.00 L 582.00 411.00 L 582.00 417.00 L 648.00 417.00 L 648.00 402.00 L 660.00 393.00 L 660.00 318.00 L 678.00 318.00 L 678.00 366.00 L 714.00 366.00 L 714.00 363.00 L 723.00 363.00 L 726.00 357.00 L 696.00 354.00 L 696.00 345.00 L 690.00 339.00 L 687.00 321.00 L 684.00 321.00 L 681.00 306.00 L 678.00 306.00 L 678.00 294.00 L 741.00 294.00 L 741.00 291.00 L 681.00 291.00 L 681.00 288.00 L 717.00 288.00 L 720.00 273.00 L 666.00 273.00 L 666.00 288.00 L 660.00 288.00 L 666.00 294.00 L 645.00 294.00 L 645.00 291.00 Z" fill="#7ea055" stroke="#0b1418" stroke-width="0.6" stroke-linejoin="round"/>
<path d="M 231.00 336.00 L 234.00 339.00 L 216.00 336.00 L 216.00 342.00 L 144.00 342.00 L 144.00 345.00 L 126.00 345.00 L 126.00 348.00 L 108.00 348.00 L 108.00 351.00 L 90.00 351.00 L 90.00 354.00 L 69.00 354.00 L 69.00 360.00 L 72.00 363.00 L 114.00 363.00 L 114.00 360.00 L 234.00 363.00 L 234.00 381.00 L 246.00 390.00 L 246.00 399.00 L 234.00 408.00 L 234.00 414.00 L 321.00 414.00 L 321.00 411.00 L 297.00 405.00 L 297.00 381.00 L 300.00 381.00 L 300.00 366.00 L 303.00 366.00 L 312.00 300.00 L 324.00 297.00 L 324.00 282.00 L 372.00 282.00 L 372.00 252.00 L 333.00 255.00 L 327.00 249.00 L 327.00 240.00 L 336.00 240.00 L 336.00 237.00 L 252.00 237.00 L 252.00 240.00 L 243.00 240.00 L 243.00 267.00 L 234.00 276.00 L 234.00 321.00 L 231.00 321.00 L 231.00 336.00 Z" fill="#a9c67d" stroke="#0b1418" stroke-width="0.6" stroke-linejoin="round"/>
<path d="M 462.00 156.00 L 447.00 165.00 L 444.00 219.00 L 450.00 219.00 L 453.00 225.00 L 588.00 225.00 L 558.00 180.00 L 567.00 165.00 L 579.00 162.00 L 582.00 123.00 L 588.00 117.00 L 594.00 117.00 L 597.00 108.00 L 705.00 105.00 L 702.00 90.00 L 699.00 90.00 L 699.00 69.00 L 696.00 69.00 L 693.00 51.00 L 687.00 51.00 L 687.00 57.00 L 684.00 54.00 L 594.00 54.00 L 594.00 60.00 L 585.00 72.00 L 585.00 81.00 L 576.00 93.00 L 576.00 102.00 L 570.00 108.00 L 573.00 114.00 L 570.00 117.00 L 564.00 114.00 L 546.00 156.00 L 501.00 153.00 L 501.00 150.00 L 465.00 150.00 L 462.00 156.00 Z" fill="#4e9d8a" stroke="#0b1418" stroke-width="0.6" stroke-linejoin="round"/>
<path d="M 438.00 291.00 L 438.00 417.00 L 504.00 417.00 L 504.00 414.00 L 552.00 414.00 L 552.00 408.00 L 582.00 408.00 L 582.00 387.00 L 579.00 387.00 L 579.00 375.00 L 573.00 366.00 L 570.00 342.00 L 564.00 333.00 L 564.00 321.00 L 555.00 312.00 L 555.00 303.00 L 561.00 303.00 L 561.00 291.00 L 465.00 291.00 L 465.00 294.00 L 438.00 291.00 Z" fill="#8ac9b9" stroke="#0b1418" stroke-width="0.6" stroke-linejoin="round"/>
<path d="M 90.00 105.00 L 90.00 228.00 L 69.00 228.00 L 63.00 234.00 L 63.00 351.00 L 87.00 351.00 L 87.00 348.00 L 141.00 342.00 L 141.00 321.00 L 231.00 318.00 L 231.00 273.00 L 228.00 270.00 L 183.00 270.00 L 174.00 246.00 L 168.00 243.00 L 168.00 237.00 L 159.00 225.00 L 108.00 225.00 L 108.00 114.00 L 99.00 114.00 L 99.00 108.00 L 213.00 108.00 L 213.00 111.00 L 381.00 111.00 L 381.00 108.00 L 90.00 105.00 Z" fill="#d6b552" stroke="#0b1418" stroke-width="0.6" stroke-linejoin="round"/>
<path d="M 198.00 114.00 L 207.00 123.00 L 330.00 120.00 L 330.00 138.00 L 324.00 138.00 L 318.00 144.00 L 318.00 159.00 L 315.00 159.00 L 309.00 231.00 L 312.00 234.00 L 402.00 237.00 L 402.00 267.00 L 444.00 264.00 L 444.00 258.00 L 438.00 258.00 L 438.00 255.00 L 444.00 255.00 L 444.00 243.00 L 534.00 243.00 L 534.00 237.00 L 537.00 237.00 L 540.00 225.00 L 453.00 225.00 L 450.00 219.00 L 444.00 219.00 L 447.00 159.00 L 417.00 156.00 L 417.00 153.00 L 402.00 153.00 L 402.00 150.00 L 384.00 150.00 L 384.00 147.00 L 366.00 147.00 L 366.00 144.00 L 348.00 144.00 L 348.00 138.00 L 369.00 135.00 L 384.00 120.00 L 381.00 117.00 L 384.00 111.00 L 213.00 111.00 L 213.00 108.00 L 201.00 108.00 L 198.00 114.00 Z" fill="#e8d489" stroke="#0b1418" stroke-width="0.6" stroke-linejoin="round"/>
<path d="M 60.00 45.00 L 60.00 225.00 L 90.00 225.00 L 90.00 105.00 L 387.00 108.00 L 387.00 102.00 L 393.00 102.00 L 393.00 96.00 L 384.00 93.00 L 381.00 99.00 L 360.00 99.00 L 357.00 96.00 L 357.00 102.00 L 324.00 102.00 L 324.00 54.00 L 327.00 51.00 L 210.00 51.00 L 207.00 42.00 L 84.00 42.00 L 84.00 45.00 L 60.00 45.00 Z" fill="#a95fa0" stroke="#0b1418" stroke-width="0.6" stroke-linejoin="round"/>
<path d="M 57.00 9.00 L 57.00 393.00 L 66.00 393.00 L 66.00 390.00 L 144.00 390.00 L 144.00 384.00 L 129.00 384.00 L 129.00 375.00 L 141.00 363.00 L 69.00 366.00 L 66.00 354.00 L 60.00 354.00 L 60.00 45.00 L 84.00 45.00 L 84.00 42.00 L 207.00 42.00 L 210.00 51.00 L 342.00 51.00 L 342.00 48.00 L 348.00 48.00 L 348.00 33.00 L 345.00 33.00 L 348.00 24.00 L 360.00 24.00 L 360.00 30.00 L 450.00 30.00 L 459.00 24.00 L 483.00 21.00 L 489.00 12.00 L 486.00 9.00 L 57.00 9.00 Z" fill="#cb96c5" stroke="#0b1418" stroke-width="0.6" stroke-linejoin="round"/>
<path d="M 381.00 108.00 L 384.00 120.00 L 369.00 135.00 L 348.00 138.00 L 348.00 144.00 L 435.00 156.00 L 435.00 159.00 L 447.00 159.00 L 447.00 165.00 L 453.00 159.00 L 459.00 159.00 L 465.00 150.00 L 501.00 150.00 L 501.00 153.00 L 546.00 156.00 L 564.00 114.00 L 567.00 117.00 L 573.00 114.00 L 570.00 108.00 L 576.00 102.00 L 576.00 93.00 L 585.00 81.00 L 585.00 72.00 L 588.00 72.00 L 594.00 54.00 L 684.00 54.00 L 687.00 57.00 L 687.00 51.00 L 693.00 51.00 L 693.00 60.00 L 699.00 69.00 L 699.00 84.00 L 717.00 84.00 L 714.00 63.00 L 726.00 54.00 L 726.00 48.00 L 738.00 45.00 L 741.00 39.00 L 723.00 24.00 L 723.00 30.00 L 705.00 30.00 L 705.00 36.00 L 711.00 39.00 L 711.00 48.00 L 705.00 45.00 L 705.00 48.00 L 681.00 48.00 L 681.00 51.00 L 522.00 51.00 L 522.00 69.00 L 408.00 72.00 L 408.00 102.00 L 387.00 102.00 L 387.00 108.00 L 381.00 108.00 Z" fill="#b04b3c" stroke="#0b1418" stroke-width="0.6" stroke-linejoin="round"/>
<path d="M 345.00 33.00 L 348.00 33.00 L 348.00 48.00 L 324.00 54.00 L 324.00 102.00 L 357.00 102.00 L 357.00 96.00 L 360.00 99.00 L 381.00 99.00 L 384.00 93.00 L 390.00 93.00 L 393.00 102.00 L 408.00 102.00 L 408.00 72.00 L 522.00 69.00 L 522.00 51.00 L 681.00 51.00 L 681.00 48.00 L 705.00 48.00 L 705.00 45.00 L 711.00 48.00 L 711.00 39.00 L 705.00 36.00 L 702.00 27.00 L 720.00 27.00 L 714.00 12.00 L 840.00 12.00 L 840.00 156.00 L 843.00 156.00 L 843.00 9.00 L 486.00 9.00 L 489.00 15.00 L 483.00 21.00 L 459.00 24.00 L 450.00 30.00 L 360.00 30.00 L 360.00 24.00 L 348.00 24.00 L 345.00 33.00 Z" fill="#cf6a56" stroke="#0b1418" stroke-width="0.6" stroke-linejoin="round"/>
<path d="M 714.00 12.00 L 720.00 27.00 L 702.00 27.00 L 702.00 30.00 L 723.00 30.00 L 723.00 24.00 L 726.00 24.00 L 741.00 39.00 L 738.00 45.00 L 726.00 48.00 L 726.00 54.00 L 714.00 63.00 L 714.00 75.00 L 723.00 84.00 L 723.00 99.00 L 717.00 102.00 L 717.00 174.00 L 720.00 177.00 L 840.00 174.00 L 840.00 12.00 L 714.00 12.00 Z" fill="#e69384" stroke="#0b1418" stroke-width="0.6" stroke-linejoin="round"/>
<path d="M 28.5 274.5 L 44.6 271.0" stroke="#93a7b2" stroke-width="0.35" fill="none"/>
<circle cx="28.5" cy="274.5" r="0.9" fill="#93a7b2"/>
<text class="lb" x="44.6" y="274.5" stroke="#0b1418" stroke-width="1.6" stroke-opacity=".5" fill="none">Сев. Ледовитый ок.</text>
<text class="lb" x="44.6" y="274.5" fill="#eef4f7">Сев. Ледовитый ок.</text>
<text class="lv" x="44.6" y="280.1" fill="#eef4f7" fill-opacity=".9">767 см² · цель 795</text>
<path d="M 669.0 342.0 L 680.8 338.5" stroke="#93a7b2" stroke-width="0.35" fill="none"/>
<circle cx="669.0" cy="342.0" r="0.9" fill="#93a7b2"/>
<text class="lb" x="680.8" y="342.0" stroke="#0b1418" stroke-width="1.6" stroke-opacity=".5" fill="none">Сев. Тихий ок.</text>
<text class="lb" x="680.8" y="342.0" fill="#eef4f7">Сев. Тихий ок.</text>
<text class="lv" x="680.8" y="347.6" fill="#eef4f7" fill-opacity=".9">322 см² · цель 402</text>
<text class="lb" x="224.5" y="382.5" stroke="#0b1418" stroke-width="1.6" stroke-opacity=".5" fill="none">Сев. Атлантика</text>
<text class="lb" x="224.5" y="382.5" fill="#eef4f7">Сев. Атлантика</text>
<text class="lv" x="224.5" y="388.1" fill="#eef4f7" fill-opacity=".9">323 см² · цель 402</text>
<text class="lb" x="790.5" y="292.5" stroke="#0b1418" stroke-width="1.6" stroke-opacity=".5" fill="none">Юг Тихого ок.</text>
<text class="lb" x="790.5" y="292.5" fill="#eef4f7">Юг Тихого ок.</text>
<text class="lv" x="790.5" y="298.1" fill="#eef4f7" fill-opacity=".9">269 см² · цель 335</text>
<text class="lb" x="210.1" y="192.0" stroke="#0b1418" stroke-width="1.6" stroke-opacity=".5" fill="none">Юг Атлантики</text>
<text class="lb" x="210.1" y="192.0" fill="#eef4f7">Юг Атлантики</text>
<text class="lv" x="210.1" y="197.6" fill="#eef4f7" fill-opacity=".9">267 см² · цель 335</text>
<text class="lb" x="632.5" y="187.5" stroke="#0b1418" stroke-width="1.6" stroke-opacity=".5" fill="none">Индийский ок.</text>
<text class="lb" x="632.5" y="187.5" fill="#eef4f7">Индийский ок.</text>
<text class="lv" x="632.5" y="193.1" fill="#eef4f7" fill-opacity=".9">327 см² · цель 408</text>
<text class="lb" x="371.2" y="333.0" fill="#0d1a22">Антарктида</text>
<text class="lv" x="371.2" y="338.6" fill="#0d1a22" fill-opacity=".9">190 см² · цель 170</text>
<text class="lb" x="574.3" y="448.5" fill="#0d1a22">Запад Сев. Америки</text>
<text class="lv" x="574.3" y="454.1" fill="#0d1a22" fill-opacity=".9">188 см² · цель 161</text>
<text class="lb" x="447.0" y="495.0" fill="#0d1a22">Центр. Америка</text>
<text class="lv" x="447.0" y="500.6" fill="#0d1a22" fill-opacity=".9">147 см² · цель 138</text>
<text class="lb" x="304.1" y="489.0" fill="#0d1a22">Восток Сев. Америки</text>
<text class="lv" x="304.1" y="494.6" fill="#0d1a22" fill-opacity=".9">176 см² · цель 152</text>
<path d="M 615.5 349.5 L 603.6 346.0" stroke="#93a7b2" stroke-width="0.35" fill="none"/>
<circle cx="615.5" cy="349.5" r="0.9" fill="#93a7b2"/>
<text class="lb" x="603.6" y="349.5" fill="#0d1a22">Запад Южн. Америки</text>
<text class="lv" x="603.6" y="355.1" fill="#0d1a22" fill-opacity=".9">171 см² · цель 147</text>
<text class="lb" x="269.6" y="328.5" fill="#0d1a22">Восток Южн. Америки</text>
<text class="lv" x="269.6" y="334.1" fill="#0d1a22" fill-opacity=".9">175 см² · цель 147</text>
<text class="lb" x="567.7" y="136.5" fill="#0d1a22">Австралия</text>
<text class="lv" x="567.7" y="142.1" fill="#0d1a22" fill-opacity=".9">163 см² · цель 138</text>
<text class="lb" x="504.8" y="354.0" fill="#0d1a22">Новая Зеландия</text>
<text class="lv" x="504.8" y="359.6" fill="#0d1a22" fill-opacity=".9">163 см² · цель 138</text>
<text class="lb" x="114.8" y="231.0" fill="#0d1a22">Западная Африка</text>
<text class="lv" x="114.8" y="236.6" fill="#0d1a22" fill-opacity=".9">183 см² · цель 156</text>
<text class="lb" x="379.0" y="189.0" fill="#0d1a22">Восточная Африка</text>
<text class="lv" x="379.0" y="194.6" fill="#0d1a22" fill-opacity=".9">172 см² · цель 152</text>
<text class="lb" x="75.0" y="166.5" fill="#0d1a22">Европа</text>
<text class="lv" x="75.0" y="172.1" fill="#0d1a22" fill-opacity=".9">199 см² · цель 161</text>
<text class="lb" x="58.5" y="202.5" fill="#0d1a22">Скандинавия</text>
<text class="lv" x="58.5" y="208.1" fill="#0d1a22" fill-opacity=".9">165 см² · цель 143</text>
<text class="lb" x="492.0" y="97.5" fill="#0d1a22">Аравия</text>
<text class="lv" x="492.0" y="103.1" fill="#0d1a22" fill-opacity=".9">180 см² · цель 152</text>
<text class="lb" x="366.0" y="82.5" fill="#0d1a22">Северная Азия</text>
<text class="lv" x="366.0" y="88.1" fill="#0d1a22" fill-opacity=".9">197 см² · цель 152</text>
<text class="lb" x="781.5" y="91.5" fill="#0d1a22">Южная Азия</text>
<text class="lv" x="781.5" y="97.1" fill="#0d1a22" fill-opacity=".9">196 см² · цель 166</text>
<rect x="0" y="0" width="900" height="550" fill="none" stroke="#44606e" stroke-width="0.6" stroke-dasharray="4 3"/>
<rect x="3" y="3" width="440" height="34.4" rx="2.5" fill="#0b1418" fill-opacity="0.9" stroke="#2b4250" stroke-width="0.5"/>
<text class="hd" x="8" y="14">Поле — вариант B, разбиение по графу, шаг 2</text>
<text class="hs" x="8" y="23">Сначала разбиение, верное по графу, потом география. Граф — императив (решение Alek).</text>
<text class="hs" x="8" y="29.8">56 рёбер реестра: 49 есть, 7 нет, 7 лишних. Все 21 область — один кусок, рамки касаются ровно те шесть, кому положено.</text>
<text class="hs" x="8" y="36.6">Очертания материков на этот скелет ещё не натянуты: это следующий шаг.</text>
<text class="ft" x="896" y="546" text-anchor="end">рабочая часть 900×550 мм = 4950 см² · технологическое поле 5 мм сверх неё · полотно 910×560 мм</text>
</svg>